# 3ds Max Wavefront OBJ Exporter v0.97b - (c)2007 guruware
# File Created: 19.11.2015 03:32:13

#
# object Teapot001
#

v  15.2806 15.4890 3.4084
v  12.6604 15.4890 9.8235
v  12.6747 16.1243 9.8378
v  15.3008 16.1243 3.4084
v  13.1186 15.4890 10.2817
v  15.9260 15.4890 3.4084
v  6.2454 15.4890 12.4437
v  6.2454 16.1243 12.4638
v  6.2454 15.4890 13.0890
v  -0.3874 15.4890 9.8235
v  -0.2112 16.1243 9.8378
v  -0.6279 15.4890 10.2817
v  -2.7899 15.4890 3.4084
v  -2.8100 16.1243 3.4084
v  -3.4352 15.4890 3.4084
v  -0.1696 15.4890 -3.0066
v  -0.1840 16.1243 -3.0209
v  -0.6279 15.4890 -3.4648
v  6.2454 15.4890 -5.6268
v  6.2454 16.1243 -5.6470
v  6.2454 15.4890 -6.2722
v  12.6604 15.4890 -3.0066
v  12.6747 16.1243 -3.0209
v  13.1186 15.4890 -3.4648
v  14.6937 10.4672 11.8568
v  18.1445 10.4672 3.4084
v  15.4097 5.8084 12.5727
v  19.1529 5.8084 3.4084
v  6.2454 10.4672 15.3075
v  6.2454 5.8084 16.3159
v  -2.2030 10.4672 11.8568
v  -2.9189 5.8084 12.5727
v  -5.6537 10.4672 3.4084
v  -6.6621 5.8084 3.4084
v  -2.2030 10.4672 -5.0399
v  -2.9189 5.8084 -5.7559
v  6.2454 10.4672 -8.4906
v  6.2454 5.8084 -9.4990
v  14.6937 10.4672 -5.0399
v  15.4097 5.8084 -5.7559
v  14.2641 2.4807 11.4272
v  17.5394 2.4807 3.4084
v  13.1186 0.9681 10.2817
v  15.9260 0.9681 3.4084
v  6.2454 2.4807 14.7025
v  6.2454 0.9681 13.0890
v  -1.7734 2.4807 11.4272
v  -0.6279 0.9681 10.2817
v  -5.0487 2.4807 3.4084
v  -3.4352 0.9681 3.4084
v  -1.7734 2.4807 -4.6103
v  -0.6279 0.9681 -3.4648
v  6.2454 2.4807 -7.8856
v  6.2454 0.9681 -6.2722
v  14.2641 2.4807 -4.6103
v  13.1186 0.9681 -3.4648
v  12.1306 0.3025 9.2936
v  14.5344 0.3025 3.4084
v  6.2454 0.0000 3.4084
v  6.2454 0.3025 11.6975
v  0.3602 0.3025 9.2936
v  -2.0436 0.3025 3.4084
v  0.3602 0.3025 -2.4768
v  6.2454 0.3025 -4.8806
v  12.1306 0.3025 -2.4768
v  -4.0806 13.0688 3.4084
v  -3.7579 13.7949 4.8605
v  -10.0100 13.5226 4.8605
v  -9.3243 12.8873 3.4084
v  -12.1478 11.6167 4.8605
v  -11.1797 11.6167 3.4084
v  -3.4352 14.5209 3.4084
v  -10.6957 14.1579 3.4084
v  -13.1158 11.6167 3.4084
v  -3.7579 13.7949 1.9563
v  -10.0100 13.5226 1.9563
v  -12.1478 11.6167 1.9563
v  -10.7562 8.0924 4.8605
v  -10.1310 8.7125 3.4084
v  -6.3394 4.8403 4.8605
v  -11.3814 7.4722 3.4084
v  -6.0167 3.8722 3.4084
v  -10.7562 8.0924 1.9563
v  -6.3394 4.8403 1.9563
v  17.2167 9.1966 3.4084
v  17.2167 6.5344 6.6030
v  22.6217 10.4672 5.6108
v  21.6537 11.6167 3.4084
v  25.6066 15.4890 4.6185
v  23.6705 15.4890 3.4084
v  17.2167 3.8722 3.4084
v  23.5898 9.3176 3.4084
v  27.5427 15.4890 3.4084
v  17.2167 6.5344 0.2138
v  22.6217 10.4672 1.2061
v  25.6066 15.4890 2.1984
v  26.4234 15.9201 4.3765
v  24.4772 15.8520 3.4084
v  25.6066 15.4890 4.1345
v  24.3158 15.4890 3.4084
v  28.3696 15.9881 3.4084
v  26.8973 15.4890 3.4084
v  26.4234 15.9201 2.4404
v  25.6066 15.4890 2.6824
v  7.7364 19.2402 4.8995
v  8.3428 19.2402 3.4084
v  6.2454 20.3293 3.4084
v  7.1618 17.4251 4.3249
v  7.5361 17.4251 3.4084
v  6.2454 19.2402 5.5059
v  6.2454 17.4251 4.6992
v  4.7544 19.2402 4.8995
v  5.3289 17.4251 4.3249
v  4.1479 19.2402 3.4084
v  4.9546 17.4251 3.4084
v  4.7544 19.2402 1.9174
v  5.3289 17.4251 2.4920
v  6.2454 19.2402 1.3110
v  6.2454 17.4251 2.1177
v  7.7364 19.2402 1.9174
v  7.1618 17.4251 2.4920
v  10.0257 16.4570 7.1887
v  11.5697 16.4570 3.4084
v  12.2022 15.4890 9.3652
v  14.6352 15.4890 3.4084
v  6.2454 16.4570 8.7328
v  6.2454 15.4890 11.7983
v  2.4651 16.4570 7.1887
v  0.2886 15.4890 9.3652
v  0.9210 16.4570 3.4084
v  -2.1445 15.4890 3.4084
v  2.4651 16.4570 -0.3718
v  0.2886 15.4890 -2.5484
v  6.2454 16.4570 -1.9159
v  6.2454 15.4890 -4.9814
v  10.0257 16.4570 -0.3718
v  12.2022 15.4890 -2.5484
# 137 vertices

vn -0.9995 0.0317 0.0000
vn -0.7067 0.0319 -0.7067
vn -0.0966 0.9906 -0.0966
vn -0.1416 0.9899 -0.0000
vn 0.5936 0.5435 0.5936
vn 0.8400 0.5425 0.0000
vn -0.0010 0.0283 -0.9996
vn -0.0008 0.9899 -0.1421
vn -0.0000 0.5425 0.8400
vn 0.7268 -0.1773 -0.6636
vn 0.0816 0.9729 -0.2165
vn -0.5949 0.5381 0.5971
vn 0.9994 0.0317 0.0148
vn 0.1496 0.9886 0.0134
vn -0.8403 0.5422 -0.0004
vn 0.7067 0.0319 0.7067
vn 0.0966 0.9906 0.0966
vn -0.5936 0.5435 -0.5936
vn 0.0000 0.0317 0.9995
vn -0.0000 0.9899 0.1416
vn 0.0000 0.5425 -0.8400
vn -0.7067 0.0319 0.7067
vn -0.0966 0.9906 0.0966
vn 0.5936 0.5435 -0.5936
vn 0.6738 0.3034 0.6738
vn 0.9532 0.3025 0.0000
vn 0.7028 -0.1107 0.7028
vn 0.9939 -0.1105 0.0000
vn 0.0000 0.3025 0.9532
vn -0.0000 -0.1105 0.9939
vn -0.6738 0.3034 0.6738
vn -0.7028 -0.1107 0.7028
vn -0.9532 0.3025 0.0000
vn -0.9939 -0.1105 -0.0000
vn -0.6738 0.3034 -0.6738
vn -0.7028 -0.1107 -0.7028
vn -0.0000 0.3025 -0.9532
vn 0.0000 -0.1105 -0.9939
vn 0.6738 0.3034 -0.6738
vn 0.7028 -0.1107 -0.7028
vn 0.5792 -0.5735 0.5792
vn 0.8198 -0.5726 0.0000
vn 0.4157 -0.8089 0.4157
vn 0.5888 -0.8083 -0.0000
vn -0.0000 -0.5726 0.8198
vn 0.0000 -0.8083 0.5888
vn -0.5792 -0.5735 0.5792
vn -0.4157 -0.8089 0.4157
vn -0.8198 -0.5726 -0.0000
vn -0.5888 -0.8083 0.0000
vn -0.5792 -0.5735 -0.5792
vn -0.4157 -0.8089 -0.4157
vn 0.0000 -0.5726 -0.8198
vn -0.0000 -0.8083 -0.5888
vn 0.5792 -0.5735 -0.5792
vn 0.4157 -0.8089 -0.4157
vn 0.2016 -0.9585 0.2016
vn 0.2850 -0.9585 -0.0000
vn 0.0000 -1.0000 0.0000
vn 0.0000 -0.9585 0.2850
vn -0.2016 -0.9585 0.2016
vn -0.2850 -0.9585 0.0000
vn -0.2016 -0.9585 -0.2016
vn -0.0000 -0.9585 -0.2850
vn 0.2016 -0.9585 -0.2016
vn 0.0384 -0.9993 -0.0031
vn -0.0182 0.2727 0.9619
vn -0.0190 0.2047 0.9786
vn 0.2817 -0.9594 -0.0145
vn -0.2938 0.1264 0.9475
vn 0.9324 -0.3590 -0.0422
vn -0.0473 0.9989 0.0015
vn -0.4420 0.8969 0.0127
vn -0.9859 0.1669 0.0106
vn -0.0177 0.2685 -0.9631
vn -0.0097 0.1786 -0.9839
vn -0.2735 0.1013 -0.9565
vn -0.1217 -0.0998 0.9875
vn 0.8176 0.5756 -0.0138
vn -0.3352 -0.5061 0.7946
vn 0.6216 0.7828 -0.0294
vn -0.7747 -0.6322 0.0079
vn -0.5711 -0.8208 0.0076
vn -0.1055 -0.0889 -0.9904
vn -0.3009 -0.4869 -0.8200
vn -0.4862 0.8738 -0.0074
vn 0.3271 -0.2382 0.9145
vn 0.1595 0.0246 0.9869
vn -0.6970 0.7167 0.0236
vn -0.0062 0.3812 0.9245
vn -0.7234 0.6881 0.0562
vn 0.6538 -0.7567 -0.0025
vn 0.7677 -0.6406 -0.0173
vn 0.6465 -0.7616 -0.0447
vn 0.3456 -0.2343 -0.9087
vn 0.1845 0.0081 -0.9828
vn 0.0506 0.3154 -0.9476
vn 0.2319 0.7793 0.5821
vn 0.0416 0.9967 0.0704
vn 0.3158 -0.0454 -0.9477
vn 0.9011 -0.4334 0.0135
vn 0.9533 0.2997 -0.0371
vn -0.3219 0.9468 -0.0032
vn 0.3655 0.7293 -0.5783
vn 0.3394 -0.1174 0.9333
vn 0.6774 0.2871 0.6773
vn 0.9576 0.2882 0.0001
vn -0.0000 1.0000 0.0000
vn 0.5955 0.5396 0.5952
vn 0.8436 0.5370 0.0002
vn -0.0001 0.2882 0.9576
vn -0.0002 0.5370 0.8436
vn -0.6773 0.2871 0.6774
vn -0.5952 0.5396 0.5955
vn -0.9576 0.2882 -0.0001
vn -0.8436 0.5370 -0.0002
vn -0.6774 0.2871 -0.6773
vn -0.5955 0.5396 -0.5952
vn 0.0001 0.2882 -0.9576
vn 0.0002 0.5370 -0.8436
vn 0.6773 0.2871 -0.6774
vn 0.5952 0.5396 -0.5955
vn 0.1942 0.9616 0.1942
vn 0.2754 0.9613 -0.0000
vn 0.2121 0.9539 0.2121
vn 0.3011 0.9536 -0.0000
vn 0.0000 0.9613 0.2754
vn 0.0000 0.9536 0.3011
vn -0.1942 0.9616 0.1942
vn -0.2121 0.9539 0.2121
vn -0.2754 0.9613 0.0000
vn -0.3011 0.9536 0.0000
vn -0.1942 0.9616 -0.1942
vn -0.2121 0.9539 -0.2121
vn -0.0000 0.9613 -0.2754
vn -0.0000 0.9536 -0.3011
vn 0.1942 0.9616 -0.1942
vn 0.2121 0.9539 -0.2121
# 138 vertex normals

g Teapot001
f 1//1 2//2 3//3 4//4 
f 4//4 3//3 5//5 6//6 
f 2//2 7//7 8//8 3//3 
f 3//3 8//8 9//9 5//5 
f 7//7 10//10 11//11 8//8 
f 8//8 11//11 12//12 9//9 
f 10//10 13//13 14//14 11//11 
f 11//11 14//14 15//15 12//12 
f 13//13 16//16 17//17 14//14 
f 14//14 17//17 18//18 15//15 
f 16//16 19//19 20//20 17//17 
f 17//17 20//20 21//21 18//18 
f 19//19 22//22 23//23 20//20 
f 20//20 23//23 24//24 21//21 
f 22//22 1//1 4//4 23//23 
f 23//23 4//4 6//6 24//24 
f 6//6 5//5 25//25 26//26 
f 26//26 25//25 27//27 28//28 
f 5//5 9//9 29//29 25//25 
f 25//25 29//29 30//30 27//27 
f 9//9 12//12 31//31 29//29 
f 29//29 31//31 32//32 30//30 
f 12//12 15//15 33//33 31//31 
f 31//31 33//33 34//34 32//32 
f 15//15 18//18 35//35 33//33 
f 33//33 35//35 36//36 34//34 
f 18//18 21//21 37//37 35//35 
f 35//35 37//37 38//38 36//36 
f 21//21 24//24 39//39 37//37 
f 37//37 39//39 40//40 38//38 
f 24//24 6//6 26//26 39//39 
f 39//39 26//26 28//28 40//40 
f 28//28 27//27 41//41 42//42 
f 42//42 41//41 43//43 44//44 
f 27//27 30//30 45//45 41//41 
f 41//41 45//45 46//46 43//43 
f 30//30 32//32 47//47 45//45 
f 45//45 47//47 48//48 46//46 
f 32//32 34//34 49//49 47//47 
f 47//47 49//49 50//50 48//48 
f 34//34 36//36 51//51 49//49 
f 49//49 51//51 52//52 50//50 
f 36//36 38//38 53//53 51//51 
f 51//51 53//53 54//54 52//52 
f 38//38 40//40 55//55 53//53 
f 53//53 55//55 56//56 54//54 
f 40//40 28//28 42//42 55//55 
f 55//55 42//42 44//44 56//56 
f 44//44 43//43 57//57 58//58 
f 58//58 57//57 59//59 
f 43//43 46//46 60//60 57//57 
f 57//57 60//60 59//59 
f 46//46 48//48 61//61 60//60 
f 60//60 61//61 59//59 
f 48//48 50//50 62//62 61//61 
f 61//61 62//62 59//59 
f 50//50 52//52 63//63 62//62 
f 62//62 63//63 59//59 
f 52//52 54//54 64//64 63//63 
f 63//63 64//64 59//59 
f 54//54 56//56 65//65 64//64 
f 64//64 65//65 59//59 
f 56//56 44//44 58//58 65//65 
f 65//65 58//58 59//59 
f 66//66 67//67 68//68 69//69 
f 69//69 68//68 70//70 71//71 
f 67//67 72//72 73//73 68//68 
f 68//68 73//73 74//74 70//70 
f 72//72 75//75 76//76 73//73 
f 73//73 76//76 77//77 74//74 
f 75//75 66//66 69//69 76//76 
f 76//76 69//69 71//71 77//77 
f 71//71 70//70 78//78 79//79 
f 79//79 78//78 80//80 34//81 
f 70//70 74//74 81//82 78//78 
f 78//78 81//82 82//83 80//80 
f 74//74 77//77 83//84 81//82 
f 81//82 83//84 84//85 82//83 
f 77//77 71//71 79//79 83//84 
f 83//84 79//79 34//81 84//85 
f 85//86 86//87 87//88 88//89 
f 88//89 87//88 89//90 90//91 
f 86//87 91//92 92//93 87//88 
f 87//88 92//93 93//94 89//90 
f 91//92 94//95 95//96 92//93 
f 92//93 95//96 96//97 93//94 
f 94//95 85//86 88//89 95//96 
f 95//96 88//89 90//91 96//97 
f 90//91 89//90 97//98 98//99 
f 98//99 97//98 99//100 100//101 
f 89//90 93//94 101//102 97//98 
f 97//98 101//102 102//103 99//100 
f 93//94 96//97 103//104 101//102 
f 101//102 103//104 104//105 102//103 
f 96//97 90//91 98//99 103//104 
f 103//104 98//99 100//101 104//105 
f 105//106 106//107 107//108 
f 106//107 105//106 108//109 109//110 
f 110//111 105//106 107//108 
f 105//106 110//111 111//112 108//109 
f 112//113 110//111 107//108 
f 110//111 112//113 113//114 111//112 
f 114//115 112//113 107//108 
f 112//113 114//115 115//116 113//114 
f 116//117 114//115 107//108 
f 114//115 116//117 117//118 115//116 
f 118//119 116//117 107//108 
f 116//117 118//119 119//120 117//118 
f 120//121 118//119 107//108 
f 118//119 120//121 121//122 119//120 
f 106//107 120//121 107//108 
f 120//121 106//107 109//110 121//122 
f 109//110 108//109 122//123 123//124 
f 123//124 122//123 124//125 125//126 
f 108//109 111//112 126//127 122//123 
f 122//123 126//127 127//128 124//125 
f 111//112 113//114 128//129 126//127 
f 126//127 128//129 129//130 127//128 
f 113//114 115//116 130//131 128//129 
f 128//129 130//131 131//132 129//130 
f 115//116 117//118 132//133 130//131 
f 130//131 132//133 133//134 131//132 
f 117//118 119//120 134//135 132//133 
f 132//133 134//135 135//136 133//134 
f 119//120 121//122 136//137 134//135 
f 134//135 136//137 137//138 135//136 
f 121//122 109//110 123//124 136//137 
f 136//137 123//124 125//126 137//138 
# 112 polygons - 16 triangles

